<svg width="20" height="18" viewBox="0 0 20 18" fill="none" xmlns="http://www.w3.org/2000/svg">
<g id="Group 1000003325">
<path id="Vector" d="M11.0778 1.07771C11.1414 0.975943 11.2324 0.892679 11.3324 0.818666C11.4325 0.753905 11.5416 0.707648 11.6598 0.679893C11.7781 0.66139 11.8963 0.66139 12.0146 0.679893C12.1328 0.707648 12.2419 0.753905 12.342 0.818666C12.442 0.883427 12.5239 0.975943 12.5875 1.07771C12.6512 1.17948 12.6967 1.29975 12.7149 1.42002C12.7331 1.54029 12.7331 1.66056 12.7149 1.78083C12.6876 1.9011 12.6421 2.01212 12.5694 2.11388L11.105 4.27875L18.663 15.4639H19.0905C19.3361 15.4639 19.5634 15.5656 19.7362 15.7322C19.9091 15.8987 20 16.1392 20 16.389C20 16.6388 19.9 16.8701 19.7362 17.0459C19.5725 17.2217 19.3361 17.3142 19.0905 17.3142H14.8795L14.8431 17.2494L10.7594 11.2544C10.6776 11.1341 10.5593 11.0324 10.432 10.9584C10.3047 10.8844 10.1501 10.8473 10.0045 10.8473C9.85903 10.8473 9.71351 10.8844 9.57708 10.9584C9.44975 11.0324 9.33151 11.1341 9.24966 11.2544L5.16598 17.2494L5.1296 17.3142H0.909504C0.663938 17.3142 0.436562 17.2124 0.263756 17.0459C0.0909504 16.8701 0 16.6388 0 16.389C0 16.1392 0.100045 15.9079 0.263756 15.7322C0.436562 15.5564 0.663938 15.4639 0.909504 15.4639H1.33697L8.90405 4.288L7.43975 2.12313C7.30332 1.9196 7.25784 1.66981 7.30332 1.43852C7.34879 1.19798 7.48522 0.985194 7.68531 0.846421C7.8854 0.707648 8.12187 0.652138 8.35835 0.698396C8.59482 0.744654 8.804 0.874175 8.94043 1.07771L10.0136 2.65972L11.0869 1.07771H11.0778Z" fill="#282B30"/>
<path id="Vector_2" d="M10.2045 12.5212L13.2059 16.9342C13.315 17.1007 13.2059 17.332 13.0058 17.332H7.00306C6.80297 17.332 6.68473 17.1007 6.80297 16.9342L9.80433 12.5212C9.90438 12.3732 10.1136 12.3732 10.2136 12.5212H10.2045Z" fill="#FB813E"/>
</g>
</svg>
